<svg xmlns="http://www.w3.org/2000/svg" xmlns:xlink="http://www.w3.org/1999/xlink" version="1.1" width="1280" height="720" viewBox="0 0 1280 720" font-family="Helvetica Neue, 'Microsoft YaHei', 'PingFang SC', sans-serif">
<defs>
<filter id="fx1" x="-25%" y="-25%" width="150%" height="150%"><feDropShadow dx="0.94" dy="0.94" stdDeviation="1.33" flood-color="#800023" flood-opacity="0.302"/></filter>
<filter id="fx2" x="-25%" y="-25%" width="150%" height="150%"><feDropShadow dx="0.94" dy="0.94" stdDeviation="1.33" flood-color="#800023" flood-opacity="0.302"/></filter>
</defs>
<rect x="0" y="0" width="1280" height="720" fill="#FFFFFF"/>
<g id="cover-page" transform="scale(0.5)">
  <g id="cover-red-panel">
    <rect x="72" y="74.67" width="2416" height="986.65" fill="#B7002E"/>
  </g>
  <g id="cover-overlay-curve-1">
    <path d="M 72 74.67 L 72 1061.33 L 543.35 1061.33 C 748.97 958.19 941.79 820.92 1113.37 649.35 C 1286.24 476.5 1424.33 282.05 1527.71 74.67 L 72 74.67 Z" fill="#FFFFFF" fill-opacity="0.03"/>
  </g>
  <g id="cover-overlay-curve-2">
    <path d="M 72 74.67 L 72 1039.21 C 79.55 1031.93 87.09 1024.65 94.53 1017.19 C 358.35 753.42 508.27 418.87 544.54 74.67 L 72 74.67 Z" fill="#FFFFFF" fill-opacity="0.03"/>
  </g>
  <g id="cover-title">
    <text x="251.65" y="497" text-anchor="start" xml:space="preserve" font-size="80" font-weight="700" fill="#FFFFFF">{{PRESENTATION_TITLE}}</text>
  </g>
  <g id="cover-author">
    <text x="253.76" y="660" text-anchor="start" xml:space="preserve" font-size="44" fill="#FFFFFF" fill-opacity="0.9">{{AUTHOR_AND_DATE}}</text>
  </g>
  <g id="cover-accent-square-1">
    <rect x="2145.94" y="791.95" width="37.99" height="37.99" fill="#FFFFFF" filter="url(#fx1)"/>
  </g>
  <g id="cover-accent-square-2">
    <rect x="2327.35" y="554.67" width="65.73" height="65.73" fill="#FFFFFF" filter="url(#fx2)"/>
  </g>
  <g id="cover-logotype-chinese-1">
    <path d="M 2481.91 1353.87 L 2481.91 1354.86 L 2478.92 1354.86 L 2478.92 1362.32 L 2477.72 1362.32 L 2477.72 1354.86 L 2474.74 1354.86 L 2474.74 1353.87 L 2481.91 1353.87 Z M 2361.77 1353.87 C 2362.55 1353.87 2363.23 1353.97 2363.82 1354.16 C 2364.42 1354.36 2364.88 1354.65 2365.2 1355.03 C 2365.52 1355.41 2365.69 1355.84 2365.71 1356.31 L 2364.39 1356.39 C 2364.31 1355.88 2364.07 1355.48 2363.65 1355.22 C 2363.25 1354.96 2362.64 1354.82 2361.83 1354.82 C 2360.99 1354.82 2360.38 1354.95 2359.99 1355.19 C 2359.62 1355.42 2359.41 1355.71 2359.41 1356.05 C 2359.41 1356.35 2359.56 1356.59 2359.83 1356.78 C 2360.09 1356.97 2360.79 1357.16 2361.92 1357.36 C 2363.04 1357.56 2363.82 1357.73 2364.24 1357.88 C 2364.86 1358.1 2365.31 1358.38 2365.59 1358.72 C 2365.79 1358.94 2365.92 1359.18 2365.99 1359.45 L 2366.03 1359.88 L 2365.98 1360.31 C 2365.91 1360.59 2365.76 1360.85 2365.55 1361.11 C 2365.23 1361.49 2364.77 1361.79 2364.18 1362 C 2363.58 1362.22 2362.91 1362.32 2362.15 1362.32 C 2361.2 1362.32 2360.4 1362.22 2359.77 1362 C 2359.13 1361.79 2358.63 1361.46 2358.26 1361.03 C 2357.9 1360.59 2357.69 1360.11 2357.67 1359.56 L 2359 1359.47 C 2359.05 1359.88 2359.21 1360.21 2359.43 1360.47 C 2359.64 1360.74 2360 1360.95 2360.47 1361.11 C 2360.95 1361.28 2361.49 1361.36 2362.1 1361.36 C 2362.62 1361.36 2363.07 1361.29 2363.49 1361.17 C 2363.89 1361.04 2364.19 1360.87 2364.4 1360.67 C 2364.59 1360.46 2364.7 1360.21 2364.7 1359.96 C 2364.7 1359.71 2364.61 1359.48 2364.4 1359.29 C 2364.22 1359.11 2363.9 1358.95 2363.46 1358.82 C 2363.18 1358.72 2362.56 1358.59 2361.6 1358.42 C 2360.63 1358.23 2359.96 1358.06 2359.57 1357.9 C 2359.07 1357.7 2358.69 1357.45 2358.45 1357.13 C 2358.21 1356.84 2358.08 1356.5 2358.08 1356.12 C 2358.08 1355.71 2358.24 1355.32 2358.54 1354.97 C 2358.84 1354.61 2359.27 1354.34 2359.85 1354.15 C 2360.42 1353.96 2361.07 1353.87 2361.77 1353.87 Z M 2466.41 1353.87 L 2471.2 1360.5 L 2471.2 1353.87 L 2472.35 1353.87 L 2472.35 1362.32 L 2471.11 1362.32 L 2466.33 1355.68 L 2466.33 1362.32 L 2465.18 1362.32 L 2465.18 1353.87 L 2466.41 1353.87 Z M 2463.76 1353.87 L 2463.76 1354.86 L 2458.1 1354.86 L 2458.1 1357.46 L 2463.41 1357.46 L 2463.41 1358.45 L 2458.1 1358.45 L 2458.1 1361.32 L 2463.98 1361.32 L 2463.98 1362.32 L 2456.82 1362.32 L 2456.82 1353.87 L 2463.76 1353.87 Z M 2446.86 1353.87 L 2449.23 1359.85 C 2449.45 1360.42 2449.61 1360.83 2449.72 1361.11 C 2449.82 1360.8 2450.01 1360.35 2450.24 1359.75 L 2452.65 1353.87 L 2454.43 1353.87 L 2454.43 1362.32 L 2453.16 1362.32 L 2453.16 1355.25 L 2450.24 1362.32 L 2449.05 1362.32 L 2446.14 1355.13 L 2446.14 1362.32 L 2444.87 1362.32 L 2444.87 1353.87 L 2446.86 1353.87 Z M 2345.14 1353.87 L 2349.31 1362.32 L 2347.78 1362.32 L 2346.59 1359.76 L 2342.32 1359.76 L 2341.19 1362.32 L 2339.76 1362.32 L 2343.69 1353.87 L 2345.14 1353.87 Z M 2443.46 1353.87 L 2443.46 1354.86 L 2437.78 1354.86 L 2437.78 1357.46 L 2443.1 1357.46 L 2443.1 1358.45 L 2437.78 1358.45 L 2437.78 1361.32 L 2443.68 1361.32 L 2443.68 1362.32 L 2436.51 1362.32 L 2436.51 1353.87 L 2443.46 1353.87 Z M 2372.99 1353.87 L 2372.99 1354.86 L 2367.31 1354.86 L 2367.31 1357.46 L 2372.62 1357.46 L 2372.62 1358.45 L 2367.31 1358.45 L 2367.31 1361.32 L 2373.2 1361.32 L 2373.2 1362.32 L 2366.03 1362.32 L 2366.03 1353.87 L 2372.99 1353.87 Z M 2430.93 1353.87 C 2431.69 1353.87 2432.35 1353.97 2432.96 1354.15 C 2433.56 1354.35 2434.04 1354.62 2434.38 1354.96 C 2434.73 1355.3 2434.98 1355.75 2435.16 1356.3 L 2433.92 1356.57 C 2433.78 1356.15 2433.57 1355.82 2433.35 1355.58 C 2433.12 1355.34 2432.79 1355.15 2432.36 1355.01 C 2431.93 1354.86 2431.46 1354.8 2430.94 1354.8 C 2430.31 1354.8 2429.78 1354.86 2429.31 1355.02 C 2428.86 1355.18 2428.5 1355.37 2428.22 1355.62 C 2427.94 1355.87 2427.72 1356.13 2427.56 1356.42 C 2427.29 1356.93 2427.16 1357.48 2427.16 1358.07 C 2427.16 1358.8 2427.32 1359.41 2427.65 1359.9 C 2427.96 1360.39 2428.43 1360.75 2429.03 1360.99 C 2429.64 1361.23 2430.28 1361.36 2430.96 1361.36 C 2431.55 1361.36 2432.13 1361.26 2432.7 1361.08 C 2433.25 1360.9 2433.69 1360.71 2433.98 1360.5 L 2433.98 1358.98 L 2430.94 1358.98 L 2430.94 1358.02 L 2435.32 1358.02 L 2435.32 1361.04 C 2434.64 1361.47 2433.94 1361.79 2433.24 1362 C 2432.52 1362.22 2431.79 1362.32 2431.04 1362.32 C 2430.02 1362.32 2429.1 1362.15 2428.27 1361.82 C 2427.44 1361.46 2426.82 1360.97 2426.39 1360.32 C 2425.97 1359.67 2425.76 1358.94 2425.76 1358.14 C 2425.76 1357.35 2425.97 1356.6 2426.39 1355.91 C 2426.82 1355.22 2427.42 1354.71 2428.2 1354.38 C 2428.99 1354.04 2429.9 1353.87 2430.93 1353.87 Z M 2421.59 1353.87 L 2425.76 1362.32 L 2424.22 1362.32 L 2423.03 1359.76 L 2418.78 1359.76 L 2417.65 1362.32 L 2416.2 1362.32 L 2420.13 1353.87 L 2421.59 1353.87 Z M 2352.83 1353.87 C 2353.49 1353.87 2354.08 1353.97 2354.59 1354.16 C 2355.1 1354.36 2355.49 1354.65 2355.77 1355.03 C 2356.05 1355.41 2356.19 1355.84 2356.21 1356.31 L 2355.07 1356.39 C 2355.01 1355.88 2354.79 1355.48 2354.44 1355.22 C 2354.09 1354.96 2353.57 1354.82 2352.87 1354.82 C 2352.15 1354.82 2351.62 1354.95 2351.3 1355.19 C 2350.97 1355.42 2350.8 1355.71 2350.8 1356.05 C 2350.8 1356.35 2350.92 1356.59 2351.16 1356.78 C 2351.39 1356.97 2351.99 1357.16 2352.95 1357.36 C 2353.92 1357.56 2354.59 1357.73 2354.95 1357.88 C 2355.46 1358.1 2355.86 1358.38 2356.1 1358.72 C 2356.36 1359.05 2356.48 1359.44 2356.48 1359.88 C 2356.48 1360.32 2356.34 1360.72 2356.07 1361.11 C 2355.8 1361.49 2355.4 1361.79 2354.88 1362 C 2354.38 1362.22 2353.8 1362.32 2353.15 1362.32 C 2352.33 1362.32 2351.65 1362.22 2351.11 1362 C 2350.56 1361.79 2350.12 1361.46 2349.81 1361.03 C 2349.49 1360.59 2349.32 1360.11 2349.31 1359.56 L 2350.43 1359.47 C 2350.5 1359.88 2350.61 1360.21 2350.81 1360.47 C 2351 1360.74 2351.3 1360.95 2351.71 1361.11 C 2352.12 1361.28 2352.59 1361.36 2353.1 1361.36 C 2353.55 1361.36 2353.96 1361.29 2354.3 1361.17 C 2354.64 1361.04 2354.9 1360.87 2355.07 1360.67 C 2355.25 1360.46 2355.32 1360.21 2355.32 1359.96 C 2355.32 1359.71 2355.25 1359.48 2355.08 1359.29 C 2354.93 1359.11 2354.65 1358.95 2354.27 1358.82 C 2354.03 1358.72 2353.51 1358.59 2352.68 1358.42 C 2351.85 1358.23 2351.27 1358.06 2350.93 1357.9 C 2350.5 1357.7 2350.19 1357.45 2349.98 1357.13 C 2349.76 1356.84 2349.66 1356.5 2349.66 1356.12 C 2349.66 1355.71 2349.79 1355.32 2350.04 1354.97 C 2350.3 1354.61 2350.68 1354.34 2351.16 1354.15 C 2351.67 1353.96 2352.22 1353.87 2352.83 1353.87 Z M 2409.08 1353.87 L 2413.85 1360.5 L 2413.85 1353.87 L 2415.01 1353.87 L 2415.01 1362.32 L 2413.78 1362.32 L 2409 1355.68 L 2409 1362.32 L 2407.84 1362.32 L 2407.84 1353.87 L 2409.08 1353.87 Z M 2403.67 1353.87 L 2407.84 1362.32 L 2406.3 1362.32 L 2405.1 1359.76 L 2400.85 1359.76 L 2399.72 1362.32 L 2398.29 1362.32 L 2402.21 1353.87 L 2403.67 1353.87 Z M 2389.54 1353.87 L 2391.91 1359.85 C 2392.12 1360.42 2392.28 1360.83 2392.38 1361.11 C 2392.49 1360.8 2392.68 1360.35 2392.92 1359.75 L 2395.31 1353.87 L 2397.09 1353.87 L 2397.09 1362.32 L 2395.82 1362.32 L 2395.82 1355.25 L 2392.9 1362.32 L 2391.71 1362.32 L 2388.82 1355.13 L 2388.82 1362.32 L 2387.54 1362.32 L 2387.54 1353.87 L 2389.54 1353.87 Z M 2381.57 1353.87 L 2381.57 1354.86 L 2378.58 1354.86 L 2378.58 1362.32 L 2377.38 1362.32 L 2377.38 1354.86 L 2374.4 1354.86 L 2374.4 1353.87 L 2381.57 1353.87 Z M 2344.38 1354.75 C 2344.25 1355.3 2344.06 1355.84 2343.83 1356.37 L 2342.71 1358.85 L 2346.17 1358.85 L 2345.1 1356.51 C 2344.77 1355.8 2344.54 1355.21 2344.38 1354.75 Z M 2402.92 1354.75 C 2402.78 1355.3 2402.59 1355.84 2402.36 1356.37 L 2401.24 1358.85 L 2404.69 1358.85 L 2403.63 1356.51 C 2403.3 1355.8 2403.06 1355.21 2402.92 1354.75 Z M 2420.82 1354.75 C 2420.71 1355.3 2420.51 1355.84 2420.28 1356.37 L 2419.15 1358.85 L 2422.62 1358.85 L 2421.56 1356.51 C 2421.23 1355.8 2420.99 1355.21 2420.82 1354.75 Z M 2429.96 1333.33 C 2431.92 1333.33 2433.69 1333.69 2435.26 1334.42 C 2436.83 1335.13 2438.02 1336.14 2438.85 1337.42 C 2439.68 1338.71 2440.1 1340.18 2440.1 1341.81 C 2440.1 1343.48 2439.65 1344.95 2438.79 1346.26 C 2437.93 1347.57 2436.69 1348.56 2435.1 1349.23 C 2433.51 1349.91 2431.78 1350.24 2429.95 1350.24 C 2427.95 1350.24 2426.15 1349.87 2424.58 1349.13 C 2423.02 1348.39 2421.82 1347.37 2421.01 1346.08 C 2420.2 1344.79 2419.79 1343.43 2419.79 1342.01 C 2419.79 1339.29 2420.73 1337.17 2422.63 1335.64 C 2424.52 1334.1 2426.96 1333.33 2429.96 1333.33 Z M 2473.15 1333.33 C 2474.64 1333.33 2475.99 1333.52 2477.2 1333.91 C 2478.39 1334.28 2479.35 1334.82 2480.03 1335.51 C 2480.71 1336.19 2481.25 1337.08 2481.59 1338.19 L 2479.13 1338.71 C 2478.83 1337.89 2478.44 1337.23 2477.98 1336.76 C 2477.52 1336.28 2476.86 1335.9 2476 1335.62 C 2475.15 1335.32 2474.2 1335.18 2473.16 1335.18 C 2471.91 1335.18 2470.83 1335.34 2469.91 1335.63 C 2469 1335.94 2468.27 1336.33 2467.71 1336.82 C 2467.15 1337.31 2466.72 1337.85 2466.4 1338.44 C 2465.89 1339.45 2465.62 1340.55 2465.62 1341.73 C 2465.62 1343.19 2465.94 1344.41 2466.57 1345.39 C 2467.2 1346.37 2468.12 1347.1 2469.34 1347.57 C 2470.55 1348.05 2471.84 1348.29 2473.2 1348.29 C 2474.39 1348.29 2475.54 1348.11 2476.67 1347.75 C 2477.8 1347.39 2478.64 1347 2479.24 1346.6 L 2479.24 1343.55 L 2473.16 1343.55 L 2473.16 1341.63 L 2481.91 1341.62 L 2481.91 1347.69 C 2480.58 1348.53 2479.17 1349.18 2477.75 1349.6 C 2476.32 1350.02 2474.85 1350.24 2473.36 1350.24 C 2471.33 1350.24 2469.48 1349.9 2467.82 1349.2 C 2466.17 1348.52 2464.92 1347.53 2464.07 1346.23 C 2463.22 1344.92 2462.79 1343.47 2462.79 1341.86 C 2462.79 1340.27 2463.21 1338.79 2464.06 1337.41 C 2464.9 1336.03 2466.12 1335.01 2467.69 1334.33 C 2469.27 1333.67 2471.09 1333.33 2473.15 1333.33 Z M 2351.7 1333.33 L 2351.7 1335.19 L 2344.73 1335.19 L 2344.73 1349.04 L 2341.93 1349.04 L 2341.93 1335.19 L 2334.98 1335.19 L 2334.98 1333.33 L 2351.7 1333.33 Z M 2403.49 1333.33 L 2403.49 1339.78 L 2414.58 1339.78 L 2414.58 1333.33 L 2417.4 1333.33 L 2417.4 1349.04 L 2414.58 1349.04 L 2414.58 1341.64 L 2403.49 1341.64 L 2403.49 1349.04 L 2400.68 1349.04 L 2400.68 1333.33 L 2403.49 1333.33 Z M 2357.67 1333.33 L 2357.67 1349.04 L 2355.28 1349.04 L 2355.28 1333.33 L 2357.67 1333.33 Z M 2445.37 1333.33 L 2456.53 1345.67 L 2456.53 1333.33 L 2459.21 1333.33 L 2459.21 1349.04 L 2456.33 1349.04 L 2445.18 1336.7 L 2445.18 1349.04 L 2442.49 1349.04 L 2442.49 1333.33 L 2445.37 1333.33 Z M 2370.81 1333.33 L 2379.18 1349.04 L 2376.1 1349.04 L 2373.71 1344.28 L 2365.17 1344.28 L 2362.93 1349.04 L 2360.06 1349.04 L 2367.89 1333.33 L 2370.81 1333.33 Z M 2383.25 1333.33 L 2394.4 1345.67 L 2394.4 1333.33 L 2397.09 1333.33 L 2397.09 1349.04 L 2394.21 1349.04 L 2383.07 1336.7 L 2383.07 1349.04 L 2380.37 1349.04 L 2380.37 1333.33 L 2383.25 1333.33 Z M 2429.97 1335.19 C 2427.99 1335.19 2426.27 1335.72 2424.84 1336.78 C 2423.4 1337.82 2422.69 1339.58 2422.69 1342.04 C 2422.69 1344 2423.37 1345.56 2424.75 1346.69 C 2426.13 1347.82 2427.85 1348.39 2429.93 1348.39 C 2432.04 1348.39 2433.78 1347.82 2435.14 1346.68 C 2436.52 1345.53 2437.19 1343.91 2437.19 1341.8 C 2437.19 1340.47 2436.9 1339.31 2436.33 1338.32 C 2435.74 1337.33 2434.88 1336.56 2433.76 1336.02 C 2432.63 1335.47 2431.37 1335.19 2429.97 1335.19 Z M 2369.29 1334.98 C 2369.03 1336 2368.67 1336.99 2368.2 1337.98 L 2365.96 1342.59 L 2372.88 1342.59 L 2370.75 1338.24 C 2370.1 1336.92 2369.62 1335.84 2369.29 1334.98 Z M 2453.58 1253.61 L 2451.86 1255.73 C 2459.79 1265.94 2471 1273.89 2485.49 1279.58 C 2484.15 1281.49 2482.83 1283.5 2481.54 1285.62 C 2477.64 1283.96 2473.89 1281.97 2470.25 1279.65 L 2470.25 1284.79 L 2450.9 1284.79 L 2450.9 1295.36 L 2477.5 1295.36 L 2477.5 1300.87 L 2450.9 1300.87 L 2450.9 1319.3 L 2481.47 1319.3 L 2481.47 1324.88 L 2414.25 1324.88 L 2414.25 1319.3 L 2444.91 1319.3 L 2444.91 1300.87 L 2418.16 1300.87 L 2418.16 1295.36 L 2444.91 1295.36 L 2444.91 1284.79 L 2425.49 1284.79 L 2425.49 1279.5 C 2421.95 1281.77 2418.11 1284.04 2413.97 1286.3 C 2412.92 1284.39 2411.69 1282.5 2410.23 1280.64 C 2426.82 1272.79 2438.56 1263.78 2445.44 1253.61 L 2453.58 1253.61 Z M 2357.69 1253.61 L 2357.69 1261.85 L 2390.07 1261.85 L 2390.07 1253.61 L 2395.72 1253.61 L 2395.72 1261.85 L 2408.41 1261.85 L 2408.41 1266.81 L 2395.72 1266.81 L 2395.72 1292.37 L 2410.53 1292.37 L 2410.53 1297.33 L 2390.67 1297.33 C 2396.33 1303.03 2403.25 1307.33 2411.42 1310.23 C 2409.77 1312.31 2408.41 1314.15 2407.35 1315.72 C 2402.72 1313.51 2398.47 1310.86 2394.6 1307.79 L 2394.6 1311.98 L 2376.55 1311.98 L 2376.55 1319.92 L 2407.15 1319.92 L 2407.15 1324.88 L 2340.2 1324.88 L 2340.2 1319.92 L 2370.89 1319.92 L 2370.89 1311.98 L 2352.63 1311.98 L 2352.63 1307.83 C 2348.63 1311.2 2344.45 1314.15 2340.1 1316.63 C 2339.14 1315.27 2337.84 1313.66 2336.17 1311.83 C 2343.92 1308.02 2350.63 1303.18 2356.29 1297.33 L 2337 1297.33 L 2337 1292.37 L 2352.03 1292.37 L 2352.03 1266.81 L 2339.34 1266.81 L 2339.34 1261.85 L 2352.03 1261.85 L 2352.03 1253.61 L 2357.69 1253.61 Z M 2468.83 1301.78 L 2474.06 1305.17 C 2470.57 1309.55 2466.91 1313.76 2463.06 1317.78 L 2458.59 1314.16 C 2462.62 1309.93 2466.04 1305.8 2468.83 1301.78 Z M 2426 1301.93 C 2429.64 1305.66 2433.21 1309.53 2436.7 1313.55 L 2431.62 1317.63 C 2428.62 1313.65 2425.28 1309.6 2421.6 1305.48 L 2426 1301.93 Z M 2383.98 1297.33 L 2363.19 1297.33 C 2360.06 1300.95 2356.78 1304.23 2353.39 1307.18 L 2370.89 1307.18 L 2370.89 1299.77 L 2376.55 1299.77 L 2376.55 1307.18 L 2393.84 1307.18 C 2390.24 1304.25 2386.97 1300.97 2383.98 1297.33 Z M 2390.07 1286.96 L 2357.69 1286.96 L 2357.69 1292.37 L 2390.07 1292.37 L 2390.07 1286.96 Z M 2390.07 1276.87 L 2357.69 1276.87 L 2357.69 1282.22 L 2390.07 1282.22 L 2390.07 1276.87 Z M 2447.98 1260.02 C 2442.85 1266.57 2435.45 1272.98 2425.78 1279.28 L 2469.65 1279.28 C 2461.87 1274.3 2454.65 1267.88 2447.98 1260.02 Z M 2390.07 1266.81 L 2357.69 1266.81 L 2357.69 1272.15 L 2390.07 1272.15 L 2390.07 1266.81 Z" fill="#3E4451"/>
  </g>
  <g id="cover-logotype-chinese-2">
    <path d="M 2314.29 1298.05 L 2305.86 1301.48 C 2311.17 1315.74 2316.41 1330.76 2321.61 1346.55 C 2311.35 1347.43 2298.33 1348.52 2282.56 1349.74 C 2292.05 1323.63 2301.51 1291.86 2311.02 1254.37 L 2300.4 1252.4 C 2294.94 1278.35 2287.02 1307.29 2276.59 1339.17 C 2274.4 1345.56 2271.98 1349.64 2269.28 1351.45 L 2273.08 1362 C 2275.7 1361.12 2278.48 1360.46 2281.24 1360.05 C 2294.01 1358.59 2308.4 1357 2324.4 1355.36 C 2325.89 1359.8 2325.2 1357.69 2326.59 1362.28 L 2336.17 1357.73 C 2330.95 1342.58 2325.05 1327.09 2314.29 1298.05 Z M 2236.9 1307.55 L 2239.05 1290.34 L 2265.08 1290.34 L 2265.08 1294.68 L 2273.42 1294.68 L 2273.42 1252.4 L 2227.47 1252.4 L 2227.47 1260.83 L 2265.08 1260.83 L 2265.08 1281.98 L 2231.29 1281.98 L 2227.47 1315.88 L 2260.98 1315.88 C 2260.59 1325.12 2260.05 1334.03 2259.32 1342.63 C 2258.79 1349.35 2255.47 1353.25 2249.47 1353.17 C 2246.16 1353.17 2240.47 1352.95 2232.43 1352.55 C 2233.24 1355.85 2233.86 1359.08 2234.34 1362.2 C 2241.89 1362.28 2247.26 1362.32 2250.43 1362.32 C 2261.47 1362.41 2267.47 1355.55 2270.39 1342.86 C 2269.2 1327.75 2269.94 1315.88 2270.39 1307.55 L 2236.9 1307.55 Z" fill="#B7002E"/>
  </g>
  <g id="cover-logotype-chinese-3">
    <path d="M 2205.55 1355.82 C 2182.02 1346.35 2168.58 1331.97 2161.16 1310.18 C 2155.44 1330.49 2141.49 1345.48 2115.64 1357.38 C 2114.16 1355.43 2111.56 1352.71 2108.6 1349.16 C 2135.62 1337.72 2150.06 1322.06 2154.52 1301.61 L 2110.98 1301.61 L 2110.98 1293.07 L 2155.64 1293.07 C 2155.95 1288 2156.13 1280.46 2156.13 1267.97 L 2114.9 1267.97 L 2114.9 1259.47 L 2207.88 1259.47 L 2207.88 1267.97 L 2165.64 1267.97 C 2165.59 1275.48 2165.43 1282.99 2165.2 1293.07 L 2211.82 1293.07 L 2211.82 1301.61 L 2166.68 1301.61 C 2173.56 1324.39 2187.55 1339.17 2213.03 1346.88 C 2210.06 1350.38 2207.58 1353.39 2205.55 1355.82 Z M 2219.07 1252.4 L 2102.04 1252.4 L 2102.04 1362.32 L 2219.11 1362.32 L 2219.07 1252.4 Z" fill="#B7002E"/>
  </g>
  <g id="cover-tagline-mark">
    <rect x="73.33" y="1306.67" width="56.35" height="56.35" fill="#B7002E"/>
  </g>
  <g id="cover-tagline">
    <text x="158.22" y="1346" text-anchor="start" xml:space="preserve" font-size="44" font-weight="600" fill="#3E4451">稳健理财 值得信赖</text>
  </g>
  <g id="cover-logo-chip">
    <rect x="2175.46" y="113.38" width="262.37" height="93.14" rx="10.38" ry="10.38" fill="#FFFFFF"/>
    <image href="assets/image3.png" x="2201.84" y="127.08" width="209.62" height="65.73" preserveAspectRatio="none"/>
  </g>
</g>
</svg>
