<svg xmlns="http://www.w3.org/2000/svg" xmlns:xlink="http://www.w3.org/1999/xlink" version="1.1" width="1280" height="720" viewBox="0 0 1280 720" font-family="Helvetica Neue, 'Microsoft YaHei', 'PingFang SC', sans-serif">
<defs>
<linearGradient id="ggrad1" x1="0" y1="0.5" x2="1" y2="0.5"><stop offset="0.14" stop-color="#B7002E" stop-opacity="0"/><stop offset="1" stop-color="#B7002E" stop-opacity="0.6"/></linearGradient>
<linearGradient id="ggrad2" x1="0" y1="0.5" x2="1" y2="0.5"><stop offset="0.14" stop-color="#B7002E" stop-opacity="0"/><stop offset="1" stop-color="#B7002E" stop-opacity="0.6"/></linearGradient>
<linearGradient id="ggrad3" x1="0" y1="0.5" x2="1" y2="0.5"><stop offset="0.14" stop-color="#B7002E" stop-opacity="0"/><stop offset="1" stop-color="#B7002E" stop-opacity="0.6"/></linearGradient>
</defs>
<rect x="0" y="0" width="1280" height="720" fill="#FFFFFF"/>
<g id="toc-page" transform="scale(0.5)">
  <g id="toc-left-panel">
    <path d="M 0 0 L 0 1440 L 790.76 1440 C 792.08 1439.73 793.35 1439.4 794.47 1438.93 C 798.59 1437.4 802.3 1435.07 805.31 1432 C 808.36 1428.93 810.75 1425.27 812.24 1421.13 C 813.43 1418.27 814.05 1414.67 814.38 1410 C 814.67 1405.33 814.67 1399.6 814.67 1392.4 C 814.67 1280.33 814.67 1168.27 814.67 1056.2 C 814.67 1000.2 814.67 944.13 814.67 888.07 L 814.67 804.07 C 815.13 794.87 818.75 786.13 824.82 779.33 C 830.51 773 838.18 768.6 845.72 763.73 C 854.17 758.33 862.5 752.27 870.46 746.33 C 875.58 742.53 880.52 738.6 884.44 734.2 C 887.9 730.33 890.67 725.93 890.67 720 C 890.67 713.87 887.86 709.47 884.15 705.6 C 879.95 701.27 874.54 697.47 869.14 693.67 C 861.14 688.07 853.1 681.87 844.94 676.33 C 837.68 671.4 830.3 666.93 824.82 660.67 C 818.84 653.8 815.25 645.13 814.67 635.93 L 814.67 551.93 C 814.67 495.87 814.67 439.8 814.67 383.8 C 814.67 271.73 814.67 159.67 814.67 47.6 C 814.67 40.4 814.67 34.67 814.38 30 C 814.05 25.33 813.43 21.73 812.24 18.87 C 810.75 14.73 808.36 11.07 805.31 8 C 802.3 4.93 798.59 2.6 794.47 1.07 C 793.35 0.6 792.08 0.27 790.76 0 L 0 0 Z" fill="#B7002E"/>
    <path d="M 0 0 L 0 644.46 C 181.17 460.94 294.73 235.76 340.54 0 L 0 0 Z" fill="#FFFFFF" fill-opacity="0.0523"/>
    <path d="M 0 0 L 0 1085.75 C 89.86 1032.72 174.58 967.62 251.78 890.42 C 497.73 644.51 620.87 322.31 621.33 0 L 0 0 Z" fill="#FFFFFF" fill-opacity="0.0523"/>
    <path d="M 0 0 L 0 1440 L 268.73 1440 C 363.54 1385.6 452.83 1318.07 533.84 1237.07 C 659.56 1111.33 753.1 965.67 814.67 810.27 L 814.67 804.07 C 815.14 794.87 818.75 786.13 824.82 779.33 C 825.62 778.47 826.49 777.73 827.32 776.93 C 838.39 746.53 848.23 715.87 856.88 684.87 C 852.91 682 848.98 679.07 844.97 676.33 C 837.71 671.4 830.3 666.93 824.82 660.67 C 818.83 653.8 815.22 645.13 814.67 635.93 L 814.67 551.93 C 814.67 495.87 814.67 439.8 814.67 383.8 C 814.67 271.73 814.67 159.67 814.67 47.6 C 814.67 40.4 814.67 34.67 814.39 30 C 814.07 25.33 813.44 21.73 812.25 18.87 C 810.74 14.73 808.36 11.07 805.34 8 C 802.29 4.93 798.6 2.6 794.47 1.07 C 793.36 0.6 792.05 0.27 790.75 0 L 0 0 Z" fill="#FFFFFF" fill-opacity="0.0523"/>
  </g>
  <g id="toc-arrow"><path d="M 784.0400,719.1300 L 828.9200,719.1300 M 828.9200,719.1300 L 812.4800,706.1300 M 828.9200,719.1300 L 812.4800,732.1400" stroke-width="4.667" stroke-linecap="round" stroke="#FFFFFF" fill="none" /></g>
  <g id="toc-page-mark">
    <text x="273.52" y="681" text-anchor="start" xml:space="preserve" font-size="120" font-weight="700" fill="#FFFFFF">目</text>
    <text x="273.52" y="811" text-anchor="start" xml:space="preserve" font-size="120" font-weight="700" fill="#FFFFFF">录</text>
    <text x="266.71" y="922" text-anchor="start" xml:space="preserve" font-size="50" letter-spacing="6" fill="#FFFFFF" fill-opacity="0.75">Contents</text>
  </g>
  <g id="toc-deco-squares">
    <rect x="569.56" y="71.98" width="53.33" height="53.33" fill="#FFFFFF"/>
    <rect x="684.42" y="175.17" width="53.33" height="53.33" fill="#FFFFFF"/>
    <rect x="648.97" y="324.78" width="40" height="40" fill="#FFFFFF"/>
  </g>
  <g id="toc-corner-mark" font-family="Helvetica Neue, 'Microsoft YaHei', 'PingFang SC', sans-serif" font-size="180" font-weight="700" letter-spacing="9" fill="none" stroke-width="2.5">
    <text x="330" y="1340" text-anchor="start" xml:space="preserve" stroke="#FFFFFF" stroke-opacity="0.3">CONTENTS</text>
    <text x="330" y="1340" text-anchor="start" xml:space="preserve" stroke="#B7002E" stroke-opacity="0.2">CONTENTS</text>
  </g>
  <g id="toc-item-1">
    <g><path d="M 1412.7500,353.1500 L 1412.4100,478.5200 M 1412.4100,478.5200 C 1410.2600,478.6900 1408.1100,478.1700 1406.1400,477.0100 C 1404.3900,475.9700 1402.8300,474.4400 1401.5800,472.5400 L 1350.6600,422.4300 C 1349.7800,421.3800 1349.0500,420.1200 1348.5300,418.7200 C 1348.1800,417.8000 1347.9300,416.8200 1347.8600,415.8000 C 1347.7000,413.4500 1348.5100,411.1700 1349.9900,409.8100 L 1401.4000,359.5700 C 1402.7600,357.6200 1404.4000,356.0500 1406.2300,354.9600 C 1408.2700,353.7200 1410.5000,353.1100 1412.7500,353.1500" fill="url(#ggrad1)" /></g>
    <g><path d="M 1423.2743,465.9951 L 1377.7508,420.4715 A 6.5600,6.5600 225.0000 0 1 1377.7508,411.1943 L 1423.2743,365.6708 A 6.5600,6.5600 225.0000 0 1 1432.5515,365.6708 L 1478.0751,411.1943 A 6.5600,6.5600 225.0000 0 1 1478.0751,420.4715 L 1432.5515,465.9951 A 6.5600,6.5600 225.0000 0 1 1423.2743,465.9951 Z" fill="#FFFFFF" stroke-width="2.667" stroke="#B7002E" stroke-opacity="0.5" /></g>
    <text x="1428" y="430.54" text-anchor="middle" xml:space="preserve" font-size="42" font-weight="700" fill="#B7002E">01</text>
    <text x="1527.72" y="375.32" text-anchor="start" xml:space="preserve" font-size="46" font-weight="700" fill="#3E4451">{{TOC_ITEM_1_TITLE}}</text>
    <text x="1531.32" y="475" text-anchor="start" xml:space="preserve" font-size="28" fill="#3E4451" fill-opacity="0.75">{{TOC_ITEM_1_DESC}}</text>
  </g>
  <g id="toc-item-2">
    <g><path d="M 1412.7500,659.3600 L 1412.4100,784.7300 M 1412.4100,784.7300 C 1410.2600,784.9000 1408.1100,784.3800 1406.1400,783.2200 C 1404.3900,782.1800 1402.8300,780.6500 1401.5800,778.7500 L 1350.6600,728.6400 C 1349.7800,727.5900 1349.0500,726.3300 1348.5300,724.9300 C 1348.1800,724.0100 1347.9300,723.0300 1347.8600,722.0100 C 1347.7000,719.6600 1348.5100,717.3800 1349.9900,716.0200 L 1401.4000,665.7800 C 1402.7600,663.8300 1404.4000,662.2600 1406.2300,661.1700 C 1408.2700,659.9300 1410.5000,659.3200 1412.7500,659.3600" fill="url(#ggrad2)" /></g>
    <g><path d="M 1423.2814,772.2080 L 1377.7578,726.6845 A 6.5600,6.5600 225.0000 0 1 1377.7578,717.4072 L 1423.2814,671.8837 A 6.5600,6.5600 225.0000 0 1 1432.5586,671.8837 L 1478.0822,717.4072 A 6.5600,6.5600 225.0000 0 1 1478.0822,726.6845 L 1432.5586,772.2080 A 6.5600,6.5600 225.0000 0 1 1423.2814,772.2080 Z" fill="#FFFFFF" stroke-width="2.667" stroke="#B7002E" stroke-opacity="0.5" /></g>
    <text x="1428" y="736.76" text-anchor="middle" xml:space="preserve" font-size="42" font-weight="700" fill="#B7002E">02</text>
    <text x="1527.72" y="681.75" text-anchor="start" xml:space="preserve" font-size="46" font-weight="700" fill="#3E4451">{{TOC_ITEM_2_TITLE}}</text>
    <text x="1531.32" y="780" text-anchor="start" xml:space="preserve" font-size="28" fill="#3E4451" fill-opacity="0.75">{{TOC_ITEM_2_DESC}}</text>
  </g>
  <g id="toc-item-3">
    <g><path d="M 1412.7500,963.2300 L 1412.4100,1088.6000 M 1412.4100,1088.6000 C 1410.2600,1088.7700 1408.1100,1088.2500 1406.1400,1087.0900 C 1404.3900,1086.0500 1402.8300,1084.5300 1401.5800,1082.6200 L 1350.6600,1032.5100 C 1349.7800,1031.4600 1349.0500,1030.2100 1348.5300,1028.8000 C 1348.1800,1027.8800 1347.9300,1026.9000 1347.8600,1025.8800 C 1347.7000,1023.5300 1348.5100,1021.2500 1349.9900,1019.8900 L 1401.4000,969.6500 C 1402.7600,967.7100 1404.4000,966.1400 1406.2300,965.0400 C 1408.2700,963.8000 1410.5000,963.1900 1412.7500,963.2300" fill="url(#ggrad3)" /></g>
    <g><path d="M 1423.2743,1076.0851 L 1377.7508,1030.5615 A 6.5600,6.5600 225.0000 0 1 1377.7508,1021.2843 L 1423.2743,975.7608 A 6.5600,6.5600 225.0000 0 1 1432.5515,975.7608 L 1478.0751,1021.2843 A 6.5600,6.5600 225.0000 0 1 1478.0751,1030.5615 L 1432.5515,1076.0851 A 6.5600,6.5600 225.0000 0 1 1423.2743,1076.0851 Z" fill="#FFFFFF" stroke-width="2.667" stroke="#B7002E" stroke-opacity="0.5" /></g>
    <text x="1428" y="1040.63" text-anchor="middle" xml:space="preserve" font-size="42" font-weight="700" fill="#B7002E">03</text>
    <text x="1527.72" y="986.67" text-anchor="start" xml:space="preserve" font-size="46" font-weight="700" fill="#3E4451">{{TOC_ITEM_3_TITLE}}</text>
    <text x="1531.32" y="1083" text-anchor="start" xml:space="preserve" font-size="28" fill="#3E4451" fill-opacity="0.75">{{TOC_ITEM_3_DESC}}</text>
  </g>
</g>
</svg>
